<svg xmlns="http://www.w3.org/2000/svg" width="32" height="32" fill="none" viewBox="0 0 32 32">
  <rect width="32" height="32" rx="9" fill="#0F172A" />
  <path
    fill="#F8FAFC"
    d="M8.5 11.75c0-.69.56-1.25 1.25-1.25h12.5c.69 0 1.25.56 1.25 1.25v8.5c0 .69-.56 1.25-1.25 1.25h-12.5c-.69 0-1.25-.56-1.25-1.25v-8.5Z"
  />
  <path
    fill="#0F172A"
    d="M10 13.05v6.2c0 .41.34.75.75.75h10.5c.41 0 .75-.34.75-.75v-6.2l-5.24 3.34c-.71.45-1.56.45-2.27 0L10 13.05Z"
  />
  <path
    fill="#0F172A"
    d="M10.47 11h11.06c.63 0 .94.78.45 1.21l-4.75 4.19c-.72.64-1.78.64-2.5 0l-4.75-4.19c-.5-.43-.18-1.21.45-1.21Z"
  />
</svg>
