<svg xmlns="http://www.w3.org/2000/svg" width="32" height="32" fill="none" viewBox="0 0 32 32">
  <rect width="32" height="32" rx="9" fill="#F8FAFC" />
  <path
    fill="#0F172A"
    fill-rule="evenodd"
    d="M16 9c-3.87 0-7 3.13-7 7 0 3.09 1.99 5.72 4.75 6.64.35.07.48-.15.48-.34 0-.17-.01-.73-.01-1.33-1.72.37-2.08-.73-2.21-1.4-.08-.2-.42-.82-.72-.99-.25-.14-.6-.48-.01-.49.55-.01.94.5 1.07.71.63 1.06 1.64.76 2.05.58.06-.45.25-.76.45-.94-1.53-.17-3.13-.76-3.13-3.36 0-.74.26-1.35.69-1.82-.07-.17-.3-.87.07-1.81 0 0 .57-.18 1.87.7.54-.15 1.12-.22 1.7-.22.58 0 1.16.07 1.7.22 1.3-.88 1.87-.7 1.87-.7.37.94.14 1.64.07 1.81.43.47.69 1.08.69 1.82 0 2.6-1.6 3.19-3.13 3.36.26.22.48.65.48 1.31 0 .94-.01 1.69-.01 1.92 0 .19.13.42.49.34C21.01 21.72 23 19.09 23 16c0-3.87-3.13-7-7-7Z"
    clip-rule="evenodd"
  />
</svg>
