<svg xmlns="http://www.w3.org/2000/svg" viewBox="0 0 256 256" role="img">
  <rect width="256" height="256" fill="#f7f9fc" rx="56" />
  <g fill="#0f2740">
    <text x="44" y="132" font-family="'Montserrat', 'Avenir Next', sans-serif" font-weight="700" font-size="72" letter-spacing="4">AK</text>
    <path d="M172 76a38 38 0 0 0-36.94 30.65 12 12 0 0 1-3.32 6.24l-52.8 52.8 13.66 13.66 52.8-52.8a12 12 0 0 1 6.24-3.32A38 38 0 1 0 196 76a10 10 0 0 1-12 12 10 10 0 0 1-10-10 12 12 0 0 0-12-12Z"/>
  </g>
</svg>
