<svg xmlns="http://www.w3.org/2000/svg" viewBox="0 0 64 64" role="img">
  <rect width="64" height="64" fill="#f7f9fc" rx="12" />
  <g fill="#0f2740">
    <text x="8" y="36" font-family="'Montserrat', 'Avenir Next', sans-serif" font-weight="700" font-size="22" letter-spacing="2">AK</text>
    <path d="M43 20a11 11 0 0 0-10.66 8.88 3.4 3.4 0 0 1-.96 1.72l-14.2 14.2 3.68 3.68 14.2-14.2a3.4 3.4 0 0 1 1.72-.96A11 11 0 1 0 49 20a2.8 2.8 0 0 1-3.4 3.4 2.8 2.8 0 0 1-2.8-2.8 3.8 3.8 0 0 0-3.8-3.8Z"/>
  </g>
</svg>
